PathFileType	4	(X/Y/Z)	/home/alexbeat/data/kuopio-gait-dataset/01/mocap/calib_static_markers.trc
DataRate	CameraRate	NumFrames	NumMarkers	Units	OrigDataRate	OrigDataStartFrame	OrigNumFrames
100.000000	100.000000	4	70	mm	100.000000	158	211
Frame#	Time	Pelvis1			Pelvis2			Pelvis3			Pelvis4			Torso1			Torso2			Torso3			Torso4			RFemur1			RFemur2			RFemur3			RFemur4			LFemur1			LFemur2			LFemur3			LFemur4			RTibia1			RTibia2			RTibia3			RTibia4			LTibia1			LTibia2			LTibia3			LTibia4			LFoot1			LFoot2			LFoot3			RFoot1			RFoot2			RFoot3			*30			*31			*32			*33			*34			*35			*36			*37			*38			Pelvis_RFemur_score			Pelvis_LFemur_score			RFemur_RTibia_score			RFemur_RTibia_sara			LFemur_LTibia_score			LFemur_LTibia_sara			RKnee			LKnee			RTibia_RFoot_score			LTibia_LFoot_score			USERMO0			USERMO1			USERMO2			USERMO3			USERMO4			USERMO5			USERMO6			USERMO7			USERMO8			USERMO9			USERMO10			USERMO11			USERMO12			USERMO13			USERMO14			USERMO15			USERMO16			USERMO17			USERMO18			USERMO19			USERMO20			
		X1	Y1	Z1	X2	Y2	Z2	X3	Y3	Z3	X4	Y4	Z4	X5	Y5	Z5	X6	Y6	Z6	X7	Y7	Z7	X8	Y8	Z8	X9	Y9	Z9	X10	Y10	Z10	X11	Y11	Z11	X12	Y12	Z12	X13	Y13	Z13	X14	Y14	Z14	X15	Y15	Z15	X16	Y16	Z16	X17	Y17	Z17	X18	Y18	Z18	X19	Y19	Z19	X20	Y20	Z20	X21	Y21	Z21	X22	Y22	Z22	X23	Y23	Z23	X24	Y24	Z24	X25	Y25	Z25	X26	Y26	Z26	X27	Y27	Z27	X28	Y28	Z28	X29	Y29	Z29	X30	Y30	Z30	X31	Y31	Z31	X32	Y32	Z32	X33	Y33	Z33	X34	Y34	Z34	X35	Y35	Z35	X36	Y36	Z36	X37	Y37	Z37	X38	Y38	Z38	X39	Y39	Z39	X40	Y40	Z40	X41	Y41	Z41	X42	Y42	Z42	X43	Y43	Z43	X44	Y44	Z44	X45	Y45	Z45	X46	Y46	Z46	X47	Y47	Z47	X48	Y48	Z48	X49	Y49	Z49	X50	Y50	Z50	X51	Y51	Z51	X52	Y52	Z52	X53	Y53	Z53	X54	Y54	Z54	X55	Y55	Z55	X56	Y56	Z56	X57	Y57	Z57	X58	Y58	Z58	X59	Y59	Z59	X60	Y60	Z60	X61	Y61	Z61	X62	Y62	Z62	X63	Y63	Z63	X64	Y64	Z64	X65	Y65	Z65	X66	Y66	Z66	X67	Y67	Z67	X68	Y68	Z68	X69	Y69	Z69	X70	Y70	Z70	

159	1.58	306.5901489257812	-345.7490234375	1027.891357421875	225.9616394042969	-348.3936157226562	1030.6572265625	227.8766784667969	-316.3029174804688	916.6650390625	297.5767822265625	-315.1808166503906	917.2137451171875	262.461181640625	-505.6474914550781	1423.4296875	91.58341217041016	-450.2112426757812	1441.386352539062	436.0582580566406	-444.4696044921875	1465.705688476562	254.4870300292969	-372.0802001953125	1491.526733398438	91.15378570556641	-398.5433654785156	647.4224853515625	101.3237915039062	-394.4754943847656	545.2540283203125	89.74725341796875	-422.8947448730469	592.3794555664062	84.92434692382812	-460.0794677734375	591.55615234375	434.3191833496094	-422.126953125	668.8099975585938	433.5595092773438	-483.621337890625	632.1294555664062	423.3724975585938	-423.0844116210938	563.1272583007812	434.507080078125	-441.5852355957031	634.1821899414062	92.98764038085938	-377.5480041503906	363.6093444824219	97.02317810058594	-396.7455139160156	419.1827697753906	92.02005767822266	-391.9165649414062	317.5867309570312	109.4143829345703	-339.0809326171875	366.5656433105469	426.3797912597656	-363.6904296875	372.5322570800781	432.0390930175781	-405.3237915039062	350.3939208984375	423.9782409667969	-412.9778442382812	285.2429504394531	424.7125854492188	-430.3599243164062	394.6265258789062	335.2581176757812	-320.4434814453125	28.19152641296387	377.7919616699219	-555.3536987304688	23.27510452270508	421.9366149902344	-505.9903869628906	23.18631744384766	179.6861419677734	-331.45751953125	26.5285758972168	118.1773071289062	-562.0253295898438	22.27248191833496	76.24259948730469	-505.9898986816406	21.01177406311035	1498.199584960938	1841.729248046875	615.053466796875	1584.32080078125	1909.328247070312	704.525634765625	1627.225952148438	1802.6279296875	662.8446655273438	1628.122802734375	1821.186401367188	658.2892456054688	nan	nan	nan	-3557.30126953125	-673.4279174804688	994.5901489257812	-332.5274963378906	-913.1002807617188	1653.73974609375	-3552.693359375	-669.35888671875	971.51904296875	nan	nan	nan	139.9405822753906	-454.0569152832031	904.180419921875	375.4417419433594	-458.2522888183594	892.3186645507812	145.1468963623047	-417.56591796875	461.24462890625	243.9043121337891	-432.2012329101562	466.9698791503906	364.2930908203125	-433.39599609375	458.4223022460938	264.4142456054688	-437.380859375	461.3103637695312	145.1470031738281	-417.5660095214844	461.2449951171875	364.2929992675781	-433.39599609375	458.4219970703125	222.9018707275391	-356.7632751464844	8.879270553588867	373.1162414550781	-337.549560546875	18.65069007873535	-0.8910641074180603	1.482204556465149	-0.7360233664512634	0.4305067956447601	-0.442964643239975	0.621381938457489	0.1000000014901161	0.1000000014901161	0.1000000014901161	-0.0003714433405548334	0.02948204055428505	-1.385730862617493	0.3783289194107056	-0.4605958759784698	0.02488431707024574	0.1000000014901161	0.1000000014901161	0.1000000014901161	-1.074023842811584	1.399263858795166	-0.6333903670310974	0.4274997413158417	-0.3939966559410095	0.3360495567321777	0.1000000014901161	0.1000000014901161	0.1000000014901161	-0.07453515380620956	2.508870124816895	-1.900247931480408	0.253430962562561	-0.3368212580680847	0.9918206334114075	0.1000000014901161	0.1000000014901161	0.1000000014901161	2.463818550109863	-0.2051000744104385	-2.241115093231201	0.0941476970911026	-0.4053404033184052	0.5950119495391846	0.1000000014901161	0.1000000014901161	0.1000000014901161	-1.881709694862366	2.469513893127441	-0.02844636514782906	0.1247020214796066	-0.4664909243583679	0.02327094599604607	0.1000000014901161	0.1000000014901161	0.1000000014901161	2.464661359786987	-0.3344035744667053	2.328939437866211	0.09403792023658752	-0.3887165188789368	0.3667541146278381	0.1000000014901161	0.1000000014901161	0.1000000014901161	
160	1.59	306.5640563964844	-345.7686767578125	1027.891967773438	225.9521942138672	-348.4179077148438	1030.660278320312	227.8736419677734	-316.3301086425781	916.6729125976562	297.5747375488281	-315.2221069335938	917.21728515625	262.5	-505.7265930175781	1423.444580078125	91.60295104980469	-450.2508239746094	1441.402954101562	436.0715637207031	-444.5220031738281	1465.7001953125	254.5062255859375	-372.1281127929688	1491.531494140625	91.14818572998047	-398.5544738769531	647.424560546875	101.315673828125	-394.4701843261719	545.2387084960938	89.7276611328125	-422.8858032226562	592.3548583984375	84.93531036376953	-460.0784301757812	591.5443115234375	434.3218078613281	-422.1312561035156	668.8090209960938	433.5408325195312	-483.5802612304688	632.1126098632812	423.3947448730469	-423.0675659179688	563.1582641601562	434.497802734375	-441.5457458496094	634.1728515625	92.97675323486328	-377.5460510253906	363.6258239746094	97.01975250244141	-396.72802734375	419.1794128417969	92.04579925537109	-391.9092407226562	317.5669555664062	109.4024810791016	-339.0794067382812	366.5688781738281	426.3887634277344	-363.68212890625	372.524169921875	432.045654296875	-405.3038024902344	350.3905639648438	423.9905395507812	-412.9637756347656	285.2347717285156	424.7151794433594	-430.3569641113281	394.6190490722656	335.2596740722656	-320.447509765625	28.17310523986816	377.8025207519531	-555.3206787109375	23.27878952026367	421.9341125488281	-505.9793701171875	23.18957901000977	179.7128295898438	-331.47119140625	26.53145790100098	118.1955184936523	-562.0128173828125	22.25930213928223	76.24855804443359	-505.9893188476562	20.99754333496094	1498.12646484375	1841.722900390625	614.9483642578125	1584.291381835938	1909.338745117188	704.5263061523438	1627.265991210938	1802.618530273438	662.84375	1628.135986328125	1821.14794921875	658.334716796875	nan	nan	nan	nan	nan	nan	-332.0004577636719	-912.7868041992188	1653.75927734375	nan	nan	nan	nan	nan	nan	139.9394989013672	-454.0831909179688	904.1749267578125	375.408935546875	-458.2771911621094	892.32421875	145.1346740722656	-417.5376892089844	461.2447509765625	243.8955841064453	-432.1444702148438	466.9825134277344	364.3070983886719	-433.3529052734375	458.4114685058594	264.4270935058594	-437.3171081542969	461.2872924804688	145.1349945068359	-417.5379943847656	461.2449951171875	364.3070068359375	-433.3529968261719	458.4110107421875	222.96337890625	-356.745361328125	8.89924144744873	373.1343078613281	-337.5259094238281	18.64068412780762	-0.890584409236908	1.482311844825745	-0.7362062335014343	0.4305064380168915	-0.4429404139518738	0.6213826537132263	0.1000000014901161	0.1000000014901161	0.1000000014901161	-0.0003806278109550476	0.02936160936951637	-1.385694265365601	0.378332108259201	-0.4605825543403625	0.02488049305975437	0.1000000014901161	0.1000000014901161	0.1000000014901161	-1.073910236358643	1.399234056472778	-0.6334095001220703	0.4275089204311371	-0.3939844369888306	0.3360434174537659	0.1000000014901161	0.1000000014901161	0.1000000014901161	-0.07437637448310852	2.508783340454102	-1.900367617607117	0.2534191906452179	-0.3368467390537262	0.991824209690094	0.1000000014901161	0.1000000014901161	0.1000000014901161	2.463727474212646	-0.2046723365783691	-2.241161584854126	0.0941389799118042	-0.4053389430046082	0.5950011610984802	0.1000000014901161	0.1000000014901161	0.1000000014901161	-1.881561279296875	2.469512701034546	-0.02845480479300022	0.1247189790010452	-0.4664911329746246	0.02326276898384094	0.1000000014901161	0.1000000014901161	0.1000000014901161	2.464603662490845	-0.3339052200317383	2.32944655418396	0.09404218941926956	-0.3887107670307159	0.3667523562908173	0.1000000014901161	0.1000000014901161	0.1000000014901161	
161	1.6	306.5904846191406	-345.7807922363281	1027.893432617188	225.9562377929688	-348.4269714355469	1030.664672851562	227.8749237060547	-316.3399353027344	916.672607421875	297.5919189453125	-315.2406616210938	917.209228515625	262.4958190917969	-505.7816467285156	1423.457153320312	91.61111450195312	-450.2773132324219	1441.417358398438	436.0817260742188	-444.5908813476562	1465.68505859375	254.5309448242188	-372.1560668945312	1491.524536132812	91.14406585693359	-398.5599365234375	647.4117431640625	101.3154907226562	-394.4677124023438	545.2271118164062	89.73134613037109	-422.9121704101562	592.3661499023438	84.89740753173828	-460.1117553710938	591.527587890625	434.3276672363281	-422.1280212402344	668.8013305664062	433.5523986816406	-483.60546875	632.1233520507812	423.4322204589844	-422.9341430664062	563.1224365234375	434.5029296875	-441.56103515625	634.1842651367188	92.98714447021484	-377.5307922363281	363.6156005859375	97.02632904052734	-396.72265625	419.1587524414062	92.10262298583984	-391.9044799804688	317.5433654785156	109.4148788452148	-339.0542907714844	366.5589904785156	426.3846435546875	-363.6834716796875	372.5273742675781	432.0536193847656	-405.2752990722656	350.390625	423.9970397949219	-412.9527282714844	285.2132263183594	424.7346801757812	-430.3460083007812	394.6242065429688	335.2549743652344	-320.4292602539062	28.16399192810059	377.7898559570312	-555.3359375	23.26058197021484	421.9398193359375	-505.9783020019531	23.17372512817383	179.7007141113281	-331.4764404296875	26.51575469970703	118.184684753418	-562.0162353515625	22.24172592163086	76.24636077880859	-505.9793090820312	20.99695014953613	1498.15283203125	1841.727905273438	615.004150390625	1584.311157226562	1909.337158203125	704.5515747070312	1627.2880859375	1802.605834960938	662.861083984375	1628.126586914062	1821.1796875	658.2836303710938	1493.348999023438	1874.373901367188	601.9264526367188	nan	nan	nan	-332.13720703125	-912.8850708007812	1653.731689453125	nan	nan	nan	nan	nan	nan	139.9239959716797	-454.1149291992188	904.177490234375	375.3630676269531	-458.3805847167969	892.3029174804688	145.1266479492188	-417.537109375	461.2447814941406	243.8860626220703	-432.1444396972656	467.0069274902344	364.3594360351562	-433.271240234375	458.4007263183594	264.4791870117188	-437.2399597167969	461.2618408203125	145.1269989013672	-417.5369873046875	461.2449951171875	364.3590087890625	-433.27099609375	458.4010009765625	223.0511169433594	-356.7066650390625	8.906552314758301	373.1150512695312	-337.5188293457031	18.63755989074707	-0.8895730972290039	1.482356309890747	-0.7358857989311218	0.4305224716663361	-0.4429134726524353	0.6213766932487488	0.1000000014901161	0.1000000014901161	0.1000000014901161	-0.0003400758432690054	0.02937883697450161	-1.38572371006012	0.3783282339572906	-0.4605812132358551	0.02486610226333141	0.1000000014901161	0.1000000014901161	0.1000000014901161	-1.074129819869995	1.399068593978882	-0.6330713033676147	0.427512139081955	-0.3939710557460785	0.3360406160354614	0.1000000014901161	0.1000000014901161	0.1000000014901161	-0.07434619218111038	2.508824110031128	-1.900488972663879	0.2534323334693909	-0.3368573486804962	0.9918246269226074	0.1000000014901161	0.1000000014901161	0.1000000014901161	2.463975191116333	-0.2051224708557129	-2.241340637207031	0.09413497895002365	-0.4053556323051453	0.5949947237968445	0.1000000014901161	0.1000000014901161	0.1000000014901161	-1.881665229797363	2.469655752182007	-0.02808769047260284	0.1247105896472931	-0.4664906859397888	0.0232514776289463	0.1000000014901161	0.1000000014901161	0.1000000014901161	2.464396715164185	-0.3333737850189209	2.330260276794434	0.09406878799200058	-0.3886997401714325	0.3667339086532593	0.1000000014901161	0.1000000014901161	0.1000000014901161	
162	1.61	306.5674133300781	-345.8141479492188	1027.899169921875	225.9347991943359	-348.4533386230469	1030.677490234375	227.8591918945312	-316.3623046875	916.6885986328125	297.57763671875	-315.262451171875	917.215576171875	262.5178527832031	-505.8563537597656	1423.466186523438	91.62964630126953	-450.2999877929688	1441.425537109375	436.0627746582031	-444.6058654785156	1465.688842773438	254.5656280517578	-372.1801452636719	1491.525756835938	91.13406372070312	-398.572265625	647.42138671875	101.3247146606445	-394.4617309570312	545.2312622070312	89.73499298095703	-422.9203796386719	592.3413696289062	84.94692230224609	-460.0930480957031	591.5130615234375	434.3276977539062	-422.1389770507812	668.7991333007812	433.5479431152344	-483.5782470703125	632.1203002929688	423.4254760742188	-422.9604797363281	563.1231079101562	434.4811401367188	-441.5507202148438	634.1658935546875	92.98351287841797	-377.5171203613281	363.6304016113281	97.02511596679688	-396.7140808105469	419.1783447265625	92.09073638916016	-391.8558044433594	317.5584411621094	109.412483215332	-339.0464172363281	366.5652160644531	426.4010314941406	-363.6881408691406	372.5377807617188	432.0531311035156	-405.28369140625	350.3877258300781	423.9935302734375	-412.9270324707031	285.2201232910156	424.7193908691406	-430.3423156738281	394.6207885742188	335.2523498535156	-320.4004211425781	28.17843437194824	377.7893371582031	-555.3434448242188	23.26053237915039	421.9452514648438	-505.9768676757812	23.17205429077148	179.7006378173828	-331.4671325683594	26.51425361633301	118.1779708862305	-562.0028076171875	22.24711799621582	76.24188995361328	-505.9883422851562	20.99574661254883	1498.164184570312	1841.7333984375	615.0112915039062	1584.330200195312	1909.3486328125	704.5438842773438	nan	nan	nan	1628.118530273438	1821.203735351562	658.2505493164062	nan	nan	nan	-3557.354736328125	-673.3876342773438	994.534423828125	-332.6028747558594	-913.173828125	1653.777954101562	-3552.747314453125	-669.4828491210938	971.490966796875	nan	nan	nan	139.8931884765625	-454.1347961425781	904.1776733398438	375.3504638671875	-458.3749084472656	892.3032836914062	145.1488037109375	-417.5114135742188	461.2462463378906	243.9115295410156	-432.0960388183594	467.009033203125	364.3419799804688	-433.2794799804688	458.3953247070312	264.4608459472656	-437.2257080078125	461.2557373046875	145.1490020751953	-417.510986328125	461.2460021972656	364.3420104980469	-433.2789916992188	458.3949890136719	223.0230255126953	-356.6658935546875	8.90921688079834	373.1377868652344	-337.4632873535156	18.65094566345215	-0.8897430896759033	1.482330322265625	-0.7359699606895447	0.4305141270160675	-0.4429139494895935	0.6213710904121399	0.1000000014901161	0.1000000014901161	0.1000000014901161	-0.0003635908069554716	0.02948041632771492	-1.385739803314209	0.3783290088176727	-0.4605736136436462	0.02487034164369106	0.1000000014901161	0.1000000014901161	0.1000000014901161	-1.073622822761536	1.399391412734985	-0.6332761645317078	0.4275163412094116	-0.3939640820026398	0.3360453844070435	0.1000000014901161	0.1000000014901161	0.1000000014901161	-0.07425617426633835	2.508927583694458	-1.900436162948608	0.2534133791923523	-0.3368836939334869	0.9918345212936401	0.1000000014901161	0.1000000014901161	0.1000000014901161	2.464015245437622	-0.2040409594774246	-2.240973949432373	0.09413893520832062	-0.4053532183170319	0.5949915647506714	0.1000000014901161	0.1000000014901161	0.1000000014901161	-1.881643295288086	2.469627618789673	-0.0282321460545063	0.1247068420052528	-0.4664860963821411	0.02325237356126308	0.1000000014901161	0.1000000014901161	0.1000000014901161	2.464519023895264	-0.3338821232318878	2.330100774765015	0.09406188875436783	-0.3886793553829193	0.36674565076828	0.1000000014901161	0.1000000014901161	0.1000000014901161	
